<svg width="45" height="45" viewBox="0 0 45 45" fill="none" xmlns="http://www.w3.org/2000/svg">
<path d="M35.7187 29.0392V17.3673V14.2033C35.7187 13.3595 35.7187 12.5158 35.2969 11.7423C34.5234 10.4064 32.9766 9.84391 31.5703 10.1252C31.3594 9.07047 30.7266 8.22672 29.6016 7.73453C28.9687 7.45328 28.3359 7.45328 27.7734 7.52359V6.89078C27.7031 5.41422 26.7891 4.07828 25.3125 3.65641C23.7656 3.23453 22.0781 4.00797 21.4455 5.48453C21.2346 5.97672 21.1642 6.53922 21.1642 7.10172C21.0939 7.10172 21.0236 7.03141 20.883 7.03141C18.7033 6.82047 17.0861 8.36734 17.0861 10.547C17.0158 13.4298 17.0861 16.3127 17.0861 19.1252V22.5002C16.0314 20.7423 15.1174 18.2109 12.6566 18.2814C10.8285 18.2814 9.2113 19.8986 9.2113 21.7267C9.2113 22.8517 9.98474 23.8361 10.4769 24.7502C11.2504 26.0861 12.0238 27.4923 12.8676 28.8283C13.7816 30.4455 14.766 32.0627 15.6801 33.68C16.7347 35.3675 17.7894 37.1253 18.8441 38.813C19.8285 40.3599 21.3051 41.3443 23.1334 41.4849C24.1177 41.5552 25.1724 41.4849 26.1568 41.4849C27.7037 41.4849 29.1099 41.3443 30.5162 40.7115C32.274 39.938 33.8209 38.5318 34.6644 36.8445C35.9301 34.5242 35.7191 31.7115 35.7191 29.04L35.7187 29.0392ZM27 38.7423H23.9062C22.7812 38.7423 21.9375 38.5314 21.2344 37.547C20.1094 35.8595 19.125 34.1017 18 32.3439C16.3828 29.6017 14.7656 26.7894 13.2187 24.047C12.7969 23.3439 11.3906 21.7267 12.3047 21.2345C12.8672 20.9533 13.0781 21.3752 13.2891 21.797C13.7109 22.5705 14.1328 23.2736 14.5547 24.047C15.3984 25.5939 16.3125 27.0705 17.1562 28.6175C17.8594 29.8128 19.7578 29.3207 19.7578 27.9144V12.0238C19.7578 11.6019 19.5469 10.6175 19.8281 10.266C20.1797 9.77378 20.9531 10.055 21.0234 10.5472V11.18V17.7193V19.899V27.6333C21.0234 29.4615 23.8359 29.4615 23.8359 27.6333V11.1101V9.00072V7.59447C23.8359 7.38353 23.7656 7.10228 23.9062 6.89134C24.2578 6.32884 24.8203 6.75072 24.8906 7.24291C24.9609 7.52416 24.8906 7.87572 24.8906 8.15697V11.2507C24.8203 13.8523 24.8906 16.524 24.8906 19.1962V27.5632C24.8906 29.3913 27.7031 29.3913 27.7031 27.5632V12.4462V11.2509C27.7734 10.9697 27.8437 10.7587 28.125 10.6884C28.8984 10.4775 28.8281 11.4618 28.8281 11.8837V14.1337V20.3212V27.7042C28.8281 29.5323 31.6406 29.5323 31.6406 27.7042V16.2435V14.0638C31.6406 13.5716 31.7812 13.0091 32.4141 13.1497C32.9062 13.2903 32.8359 13.8528 32.8359 14.2747V16.806V27.564C32.9062 29.1812 32.9062 31.0093 32.9062 32.8372C32.8359 36.1419 30.2344 38.673 27 38.7435V38.7423Z" fill="#5C5682"/>
<path d="M26.0858 29.8125C22.9217 29.8125 20.5312 31.4297 20.5312 33.6094C20.5312 35.7891 22.9219 37.4063 26.0858 37.4063C29.2496 37.4063 31.6403 35.7891 31.6403 33.6094C31.7106 31.4297 29.2496 29.8125 26.0858 29.8125ZM26.0858 34.5233C24.3279 34.5233 23.3436 33.8201 23.3436 33.6092C23.4139 33.4686 23.8357 33.0467 24.6795 32.8357C24.8904 33.3982 25.4529 33.8201 26.1561 33.8201C26.7889 33.8201 27.4217 33.3982 27.6326 32.8357C28.4764 33.0467 28.8983 33.4686 28.9686 33.6092C28.8279 33.8201 27.8436 34.5233 26.0858 34.5233Z" fill="#5C5682"/>
</svg>
